<?xml version="1.0" standalone="no"?>
<!DOCTYPE svg PUBLIC "-//W3C//DTD SVG 20010904//EN"
 "http://www.w3.org/TR/2001/REC-SVG-20010904/DTD/svg10.dtd">
<svg version="1.0" xmlns="http://www.w3.org/2000/svg"
 width="560.000000pt" height="86.000000pt" viewBox="0 0 560.000000 86.000000"
 preserveAspectRatio="xMidYMid meet">

<g transform="translate(0.000000,86.000000) scale(0.100000,-0.100000)"
fill="#000000" stroke="none">
<path d="M747 608 c-4 -18 -9 -93 -13 -165 -5 -100 -4 -136 6 -148 15 -18 40
-19 75 -3 33 15 30 44 -4 40 l-24 -4 7 94 c3 51 9 121 12 156 l6 62 -30 0
c-26 0 -31 -4 -35 -32z"/>
<path d="M4711 596 c-25 -39 -26 -52 -7 -59 13 -5 83 60 74 68 -2 1 -13 7 -25
14 -19 10 -24 7 -42 -23z"/>
<path d="M4155 604 c-18 -19 -16 -33 8 -48 24 -15 60 20 46 45 -12 23 -32 24
-54 3z"/>
<path d="M308 578 c-13 -10 -138 -277 -138 -295 0 -2 15 -3 33 -3 29 0 34 4
47 43 14 39 18 42 56 45 l41 3 12 -45 c10 -42 14 -46 41 -46 38 0 38 0 -4 170
-27 110 -37 136 -52 138 -11 1 -27 -3 -36 -10z m26 -140 c6 -25 4 -28 -19 -28
-29 0 -29 2 -13 47 13 35 20 30 32 -19z"/>
<path d="M1253 570 c-18 -11 -35 -31 -39 -45 -12 -47 3 -73 60 -105 60 -34 71
-50 52 -75 -10 -15 -21 -16 -59 -11 -26 4 -50 8 -54 9 -3 1 -10 -10 -14 -25
-6 -22 -3 -27 15 -32 105 -28 212 43 178 118 -6 14 -34 38 -61 53 -56 31 -68
48 -49 70 9 11 25 14 60 10 40 -5 48 -3 53 13 10 31 -3 40 -58 40 -34 0 -63
-7 -84 -20z"/>
<path d="M1430 570 c0 -17 7 -20 41 -20 l41 0 -6 -37 c-3 -21 -8 -82 -12 -136
l-6 -98 34 3 33 3 9 133 8 132 38 0 c33 0 50 12 50 36 0 2 -52 4 -115 4 -108
0 -115 -1 -115 -20z"/>
<path d="M1696 508 c-4 -46 -9 -116 -13 -156 l-5 -73 93 3 c80 3 94 6 97 21 3
15 -5 17 -57 17 l-61 0 0 49 0 50 52 3 c41 2 54 7 56 21 3 14 -4 17 -47 17
l-51 0 0 45 0 45 60 0 c53 0 60 2 60 20 0 19 -7 20 -89 20 l-89 0 -6 -82z"/>
<path d="M2028 578 c-13 -10 -138 -277 -138 -295 0 -2 15 -3 33 -3 29 0 34 4
47 43 14 39 18 42 56 45 l41 3 12 -45 c10 -42 14 -46 41 -46 38 0 38 0 -4 170
-27 110 -37 136 -52 138 -11 1 -27 -3 -36 -10z m26 -140 c6 -25 4 -28 -19 -28
-29 0 -29 2 -13 47 13 35 20 30 32 -19z"/>
<path d="M2230 583 c0 -5 -11 -73 -25 -153 -14 -80 -25 -146 -25 -147 0 -2 13
-3 29 -3 34 0 37 6 46 96 4 38 10 75 14 82 4 6 18 -31 31 -84 l25 -96 29 6
c16 4 31 8 33 10 2 1 19 41 38 87 l34 84 1 -55 c0 -30 3 -72 6 -92 6 -34 10
-38 37 -38 l30 0 -6 113 c-4 61 -7 131 -7 155 0 41 -1 42 -33 42 -34 0 -34 -1
-77 -110 -24 -60 -44 -110 -46 -110 -1 0 -10 25 -18 55 -9 30 -23 80 -32 110
-15 53 -17 55 -50 55 -19 0 -34 -3 -34 -7z"/>
<path d="M2750 583 c-24 -9 -52 -36 -61 -60 -14 -37 6 -69 66 -107 57 -37 66
-54 39 -77 -12 -10 -27 -10 -65 -3 -48 10 -50 10 -56 -14 -7 -31 9 -42 64 -42
79 0 133 39 133 96 0 34 -25 62 -89 96 -24 13 -32 24 -29 40 3 21 8 23 59 21
53 -2 57 0 61 22 3 15 0 26 -9 29 -18 7 -93 6 -113 -1z"/>
<path d="M4006 472 c-4 -65 -11 -124 -15 -131 -4 -7 -21 -11 -37 -9 -25 3 -29
-1 -32 -24 -3 -26 -1 -28 37 -28 28 0 48 7 70 25 32 28 35 41 46 198 l6 87
-34 0 -34 0 -7 -118z"/>
<path d="M503 502 c-19 -12 -30 -187 -13 -207 19 -23 55 -18 89 11 l31 26 0
-26 c0 -30 20 -34 44 -10 10 9 16 33 16 62 0 26 3 71 6 100 6 48 5 52 -14 52
-33 0 -52 -27 -52 -73 0 -42 -30 -107 -50 -107 -19 0 -22 29 -13 105 9 72 8
75 -11 75 -12 0 -27 -4 -33 -8z"/>
<path d="M924 491 c-60 -36 -86 -149 -44 -191 26 -26 54 -25 91 1 l29 20 0
-20 c0 -24 31 -29 47 -8 6 6 13 54 17 105 6 93 6 93 -20 102 -39 15 -86 12
-120 -9z m78 -68 c-5 -51 -36 -107 -56 -100 -6 2 -12 25 -14 51 -4 57 17 96
52 96 22 0 23 -3 18 -47z"/>
<path d="M2980 503 c-56 -20 -90 -100 -71 -165 18 -58 70 -75 131 -43 39 20
60 63 60 124 0 42 -4 53 -26 70 -26 20 -62 26 -94 14z m48 -45 c28 -28 7 -138
-27 -138 -23 0 -31 19 -31 71 0 66 28 97 58 67z"/>
<path d="M3173 503 c-14 -5 -20 -35 -27 -145 l-6 -78 29 0 c33 0 41 14 41 72
0 45 33 108 57 108 13 0 14 -13 8 -90 l-7 -90 30 0 30 0 9 88 c12 99 3 135
-36 140 -13 2 -36 -6 -52 -17 -35 -26 -39 -26 -39 -1 0 19 -12 24 -37 13z"/>
<path d="M3419 503 c-12 -3 -18 -22 -23 -80 -11 -138 -10 -143 24 -143 27 0
30 3 30 33 1 53 17 109 40 131 18 18 22 19 30 6 5 -8 7 -24 5 -35 -2 -11 -7
-46 -10 -77 l-6 -58 29 0 c35 0 38 7 48 121 5 63 4 78 -11 92 -23 24 -58 21
-89 -8 l-26 -24 0 24 c0 24 -7 27 -41 18z"/>
<path d="M3634 478 c3 -18 8 -72 12 -120 5 -71 10 -88 23 -88 11 0 6 -10 -17
-30 -23 -21 -43 -30 -67 -30 -31 0 -35 -3 -35 -25 0 -21 5 -25 31 -25 105 0
187 113 233 323 6 27 5 28 -26 25 -24 -2 -34 -8 -36 -23 -7 -50 -35 -145 -43
-145 -5 0 -9 28 -9 63 0 91 -7 107 -42 107 -29 0 -30 -2 -24 -32z"/>
<path d="M4154 502 c-7 -4 -15 -54 -19 -114 l-7 -108 31 0 c27 0 31 4 32 28 0
15 4 66 7 115 7 83 6 87 -13 87 -11 0 -25 -4 -31 -8z"/>
<path d="M4278 498 c-12 -10 -17 -40 -22 -115 l-6 -103 29 0 c28 0 30 3 36 48
10 75 14 88 33 112 26 32 45 18 38 -29 -3 -20 -8 -57 -11 -83 l-6 -48 30 0
c33 0 34 2 45 85 6 41 32 85 56 93 11 4 12 -12 7 -87 l-7 -91 29 0 c32 0 34 6
46 131 6 54 4 69 -10 82 -24 25 -58 21 -89 -9 -14 -15 -26 -22 -26 -16 0 18
-30 42 -54 42 -13 0 -31 -9 -41 -20 -10 -11 -22 -20 -27 -20 -4 0 -8 9 -8 20
0 23 -19 26 -42 8z"/>
<path d="M4680 497 c-58 -29 -82 -153 -37 -195 27 -26 64 -28 112 -8 25 11 33
19 29 30 -7 19 -15 20 -48 5 -20 -9 -29 -9 -41 1 -28 23 -17 46 30 65 46 17
65 38 65 74 0 37 -61 53 -110 28z m53 -33 c10 -10 -12 -44 -28 -44 -18 0 -20
21 -3 38 13 13 22 15 31 6z"/>
<path d="M4858 503 c-13 -3 -18 -14 -18 -37 0 -18 -3 -67 -6 -109 l-7 -77 31
0 c30 0 30 1 37 64 8 68 41 126 64 112 12 -8 9 -70 -5 -148 -5 -25 -3 -28 24
-28 36 0 39 6 48 112 5 72 4 87 -10 101 -25 24 -56 21 -88 -10 l-28 -27 0 27
c0 27 -6 30 -42 20z"/>
<path d="M5130 497 c-58 -29 -82 -153 -37 -195 27 -26 64 -28 112 -8 25 11 33
19 29 30 -7 19 -15 20 -48 5 -20 -9 -29 -9 -41 1 -28 23 -17 46 30 65 46 17
65 38 65 74 0 37 -61 53 -110 28z m53 -33 c10 -10 -12 -44 -28 -44 -18 0 -20
21 -3 38 13 13 22 15 31 6z"/>
<path d="M5287 490 c-5 -18 0 -20 39 -20 l44 0 -55 -84 c-30 -46 -55 -89 -55
-95 0 -8 27 -11 87 -9 74 3 88 6 91 21 3 14 -4 17 -47 17 l-51 0 55 82 c30 46
55 88 55 95 0 9 -22 13 -79 13 -70 0 -79 -2 -84 -20z"/>
</g>
</svg>
